<?xml version="1.0" standalone="no"?><!DOCTYPE svg PUBLIC "-//W3C//DTD SVG 1.1//EN" "http://www.w3.org/Graphics/SVG/1.1/DTD/svg11.dtd"><svg t="1688353785663" class="icon" viewBox="0 0 1024 1024" version="1.1" xmlns="http://www.w3.org/2000/svg" p-id="2378" xmlns:xlink="http://www.w3.org/1999/xlink" width="200" height="200"><path d="M370.812121 400.290909c-21.721212 0-38.787879 17.066667-38.787879 38.787879V605.090909c0 21.721212 17.066667 38.787879 38.787879 38.787879s38.787879-17.066667 38.787879-38.787879V439.078788c0-21.721212-17.066667-38.787879-38.787879-38.787879zM712.145455 417.357576c-15.515152-15.515152-38.787879-15.515152-54.303031 0L589.575758 485.624242c-9.309091 9.309091-13.963636 21.721212-12.412122 34.133334-1.551515 12.412121 3.10303 24.824242 12.412122 32.581818l68.266666 68.266667c7.757576 7.757576 17.066667 10.860606 27.927273 10.860606s20.169697-4.654545 27.927273-10.860606 10.860606-17.066667 10.860606-27.927273-4.654545-20.169697-10.860606-27.927273l-46.545455-46.545454 46.545455-46.545455c13.963636-13.963636 13.963636-38.787879-1.551515-54.30303z" p-id="2379" fill="#1296db"></path><path d="M788.169697 228.072727c-57.406061-27.927273-161.357576-48.09697-273.066667-49.648485-111.709091 1.551515-217.212121 20.169697-274.618182 49.648485-88.436364 41.890909-124.121212 128.775758-124.121212 297.890909 0 134.981818 37.236364 232.727273 100.848485 266.860606 82.230303 41.890909 156.70303 55.854545 296.339394 55.854546 141.187879 0 215.660606-13.963636 294.787879-54.30303 65.163636-35.684848 102.4-134.981818 102.4-268.412122 0-167.563636-37.236364-256-122.569697-297.890909z m44.993939 296.339394c0 114.812121-31.030303 183.078788-60.509091 200.145455-58.957576 29.478788-117.915152 44.993939-259.10303 44.993939-139.636364 0-200.145455-15.515152-260.654545-44.993939-29.478788-15.515152-58.957576-85.333333-58.957576-200.145455 0-134.981818 23.272727-200.145455 79.127273-229.624242 46.545455-23.272727 142.739394-40.339394 240.484848-40.339394 97.745455 1.551515 193.939394 18.618182 240.484849 40.339394 55.854545 29.478788 79.127273 94.642424 79.127272 229.624242z" p-id="2380" fill="#1296db"></path></svg>